<mxfile host="Electron" modified="2024-05-28T07:10:07.428Z" agent="Mozilla/5.0 (Macintosh; Intel Mac OS X 10_15_7) AppleWebKit/537.36 (KHTML, like Gecko) draw.io/24.4.8 Chrome/124.0.6367.207 Electron/30.0.6 Safari/537.36" etag="ErBRUPYHVs7kMFDQjLu3" version="24.4.8" type="device">
  <diagram name="第 1 页" id="H7oGYVwwCqUrGuftaqYQ">
    <mxGraphModel dx="1727" dy="1843" grid="1" gridSize="10" guides="1" tooltips="1" connect="1" arrows="1" fold="1" page="1" pageScale="1" pageWidth="827" pageHeight="1169" math="0" shadow="0">
      <root>
        <mxCell id="0" />
        <mxCell id="1" parent="0" />
        <mxCell id="CrV6sKeJObAhqucFXJqA-1" value="&lt;font face=&quot;Comic Sans MS&quot;&gt;关注事件&lt;/font&gt;" style="ellipse;shape=doubleEllipse;whiteSpace=wrap;html=1;aspect=fixed;fillColor=none;strokeColor=#00CC00;sketch=1;" vertex="1" parent="1">
          <mxGeometry x="-310" y="-560" width="80" height="80" as="geometry" />
        </mxCell>
        <mxCell id="CrV6sKeJObAhqucFXJqA-2" value="&lt;font face=&quot;Comic Sans MS&quot;&gt;关注人&lt;br&gt;是否活跃用户&lt;br&gt;【active_user_$userId】&lt;br&gt;&lt;/font&gt;" style="rhombus;whiteSpace=wrap;html=1;strokeWidth=2;fillWeight=-1;hachureGap=8;fillStyle=cross-hatch;sketch=1;fillColor=none;strokeColor=#FFB570;" vertex="1" parent="1">
          <mxGeometry x="-330" y="-430" width="120" height="60" as="geometry" />
        </mxCell>
        <mxCell id="CrV6sKeJObAhqucFXJqA-3" value="" style="edgeStyle=segmentEdgeStyle;endArrow=classic;html=1;entryX=0.5;entryY=0;entryDx=0;entryDy=0;exitX=0.5;exitY=1;exitDx=0;exitDy=0;sketch=1;" edge="1" parent="1" source="CrV6sKeJObAhqucFXJqA-1" target="CrV6sKeJObAhqucFXJqA-2">
          <mxGeometry width="50" height="50" relative="1" as="geometry">
            <mxPoint x="-160" y="-480" as="sourcePoint" />
            <mxPoint x="-110" y="-530" as="targetPoint" />
            <Array as="points">
              <mxPoint x="-270" y="-460" />
              <mxPoint x="-270" y="-460" />
            </Array>
          </mxGeometry>
        </mxCell>
        <mxCell id="CrV6sKeJObAhqucFXJqA-4" value="&lt;font face=&quot;Comic Sans MS&quot;&gt;结束&lt;/font&gt;" style="ellipse;whiteSpace=wrap;html=1;strokeWidth=2;fillWeight=2;hachureGap=8;fillStyle=dots;sketch=1;fillColor=none;strokeColor=#FF0000;" vertex="1" parent="1">
          <mxGeometry x="-530" y="-430" width="120" height="60" as="geometry" />
        </mxCell>
        <mxCell id="CrV6sKeJObAhqucFXJqA-5" value="否" style="edgeStyle=segmentEdgeStyle;endArrow=classic;html=1;entryX=1;entryY=0.5;entryDx=0;entryDy=0;exitX=0;exitY=0.5;exitDx=0;exitDy=0;sketch=1;" edge="1" parent="1" source="CrV6sKeJObAhqucFXJqA-2" target="CrV6sKeJObAhqucFXJqA-4">
          <mxGeometry width="50" height="50" relative="1" as="geometry">
            <mxPoint x="-390" y="-320" as="sourcePoint" />
            <mxPoint x="-340" y="-370" as="targetPoint" />
          </mxGeometry>
        </mxCell>
        <mxCell id="CrV6sKeJObAhqucFXJqA-6" value="&lt;font face=&quot;Comic Sans MS&quot;&gt;feed流&lt;br&gt;是否存在&lt;br&gt;【feed_list_$userId】&lt;br&gt;&lt;/font&gt;" style="rhombus;whiteSpace=wrap;html=1;strokeWidth=2;fillWeight=-1;hachureGap=8;fillStyle=cross-hatch;sketch=1;fillColor=none;strokeColor=#FFB570;" vertex="1" parent="1">
          <mxGeometry x="-330" y="-300" width="120" height="60" as="geometry" />
        </mxCell>
        <mxCell id="CrV6sKeJObAhqucFXJqA-7" value="是" style="edgeStyle=elbowEdgeStyle;elbow=vertical;endArrow=classic;html=1;entryX=0.5;entryY=0;entryDx=0;entryDy=0;exitX=0.5;exitY=1;exitDx=0;exitDy=0;sketch=1;" edge="1" parent="1" source="CrV6sKeJObAhqucFXJqA-2" target="CrV6sKeJObAhqucFXJqA-6">
          <mxGeometry width="50" height="50" relative="1" as="geometry">
            <mxPoint x="-370" y="-320" as="sourcePoint" />
            <mxPoint x="-320" y="-370" as="targetPoint" />
          </mxGeometry>
        </mxCell>
        <mxCell id="CrV6sKeJObAhqucFXJqA-8" value="&lt;font face=&quot;Courier New&quot;&gt;查询被关注人&lt;br&gt;的动态数据&lt;br&gt;【7天内，100条】&lt;/font&gt;" style="rounded=1;whiteSpace=wrap;html=1;strokeWidth=2;fillWeight=4;hachureGap=8;hachureAngle=45;sketch=1;fillColor=none;" vertex="1" parent="1">
          <mxGeometry x="-330" y="-180" width="120" height="60" as="geometry" />
        </mxCell>
        <mxCell id="CrV6sKeJObAhqucFXJqA-9" value="" style="edgeStyle=elbowEdgeStyle;elbow=vertical;endArrow=classic;html=1;entryX=0.5;entryY=0;entryDx=0;entryDy=0;exitX=0.5;exitY=1;exitDx=0;exitDy=0;sketch=1;" edge="1" parent="1" source="CrV6sKeJObAhqucFXJqA-6" target="CrV6sKeJObAhqucFXJqA-8">
          <mxGeometry width="50" height="50" relative="1" as="geometry">
            <mxPoint x="-480" y="-210" as="sourcePoint" />
            <mxPoint x="-430" y="-260" as="targetPoint" />
          </mxGeometry>
        </mxCell>
        <mxCell id="CrV6sKeJObAhqucFXJqA-10" value="&lt;font face=&quot;Comic Sans MS&quot;&gt;database&lt;/font&gt;" style="strokeWidth=2;html=1;shape=mxgraph.flowchart.database;whiteSpace=wrap;fillColor=none;sketch=1;" vertex="1" parent="1">
          <mxGeometry x="-160" y="-180" width="60" height="60" as="geometry" />
        </mxCell>
        <mxCell id="CrV6sKeJObAhqucFXJqA-11" value="" style="edgeStyle=elbowEdgeStyle;elbow=vertical;endArrow=classic;html=1;entryX=0;entryY=0.5;entryDx=0;entryDy=0;entryPerimeter=0;sketch=1;" edge="1" parent="1" target="CrV6sKeJObAhqucFXJqA-10">
          <mxGeometry width="50" height="50" relative="1" as="geometry">
            <mxPoint x="-210" y="-150" as="sourcePoint" />
            <mxPoint x="-160" y="-200" as="targetPoint" />
          </mxGeometry>
        </mxCell>
        <mxCell id="CrV6sKeJObAhqucFXJqA-12" value="&lt;font face=&quot;Comic Sans MS&quot;&gt;动态数据&lt;br&gt;是否为空&lt;br&gt;&lt;/font&gt;" style="rhombus;whiteSpace=wrap;html=1;strokeWidth=2;fillWeight=-1;hachureGap=8;fillStyle=cross-hatch;sketch=1;fillColor=none;strokeColor=#FFB570;" vertex="1" parent="1">
          <mxGeometry x="-330" y="-60" width="120" height="60" as="geometry" />
        </mxCell>
        <mxCell id="CrV6sKeJObAhqucFXJqA-13" value="" style="edgeStyle=elbowEdgeStyle;elbow=vertical;endArrow=classic;html=1;entryX=0.5;entryY=0;entryDx=0;entryDy=0;exitX=0.5;exitY=1;exitDx=0;exitDy=0;sketch=1;" edge="1" parent="1" source="CrV6sKeJObAhqucFXJqA-8" target="CrV6sKeJObAhqucFXJqA-12">
          <mxGeometry width="50" height="50" relative="1" as="geometry">
            <mxPoint x="-390" y="-120" as="sourcePoint" />
            <mxPoint x="-340" y="-170" as="targetPoint" />
          </mxGeometry>
        </mxCell>
        <mxCell id="CrV6sKeJObAhqucFXJqA-14" value="是" style="edgeStyle=elbowEdgeStyle;elbow=vertical;endArrow=classic;html=1;exitX=0;exitY=0.5;exitDx=0;exitDy=0;entryX=0.5;entryY=1;entryDx=0;entryDy=0;sketch=1;" edge="1" parent="1" source="CrV6sKeJObAhqucFXJqA-12" target="CrV6sKeJObAhqucFXJqA-4">
          <mxGeometry x="-0.776" width="50" height="50" relative="1" as="geometry">
            <mxPoint x="-450" y="-120" as="sourcePoint" />
            <mxPoint x="-400" y="-170" as="targetPoint" />
            <Array as="points">
              <mxPoint x="-390" y="-30" />
              <mxPoint x="-400" y="-120" />
            </Array>
            <mxPoint as="offset" />
          </mxGeometry>
        </mxCell>
        <mxCell id="CrV6sKeJObAhqucFXJqA-15" value="&lt;font face=&quot;Comic Sans MS&quot;&gt;添加被关注人&lt;br&gt;动态到feed流&lt;br&gt;【feed_list_$userId】&lt;/font&gt;" style="rounded=1;whiteSpace=wrap;html=1;strokeWidth=2;fillWeight=4;hachureGap=8;hachureAngle=45;sketch=1;fillColor=none;strokeColor=#0000FF;" vertex="1" parent="1">
          <mxGeometry x="-330" y="50" width="120" height="60" as="geometry" />
        </mxCell>
        <mxCell id="CrV6sKeJObAhqucFXJqA-16" value="" style="edgeStyle=elbowEdgeStyle;elbow=vertical;endArrow=classic;html=1;entryX=0.5;entryY=0;entryDx=0;entryDy=0;exitX=0.5;exitY=1;exitDx=0;exitDy=0;sketch=1;" edge="1" parent="1" source="CrV6sKeJObAhqucFXJqA-12" target="CrV6sKeJObAhqucFXJqA-15">
          <mxGeometry width="50" height="50" relative="1" as="geometry">
            <mxPoint x="-440" y="70" as="sourcePoint" />
            <mxPoint x="-390" y="20" as="targetPoint" />
          </mxGeometry>
        </mxCell>
        <mxCell id="CrV6sKeJObAhqucFXJqA-17" value="&lt;font face=&quot;Comic Sans MS&quot;&gt;新增用户到&lt;br&gt;被关注人粉丝列表&lt;br&gt;【active_fans_lisy_$followUserId】&lt;/font&gt;" style="rounded=1;whiteSpace=wrap;html=1;strokeWidth=2;fillWeight=4;hachureGap=8;hachureAngle=45;sketch=1;fillColor=none;strokeColor=#00CC00;" vertex="1" parent="1">
          <mxGeometry x="-375" y="170" width="210" height="60" as="geometry" />
        </mxCell>
        <mxCell id="CrV6sKeJObAhqucFXJqA-18" value="否" style="edgeStyle=elbowEdgeStyle;elbow=vertical;endArrow=classic;html=1;exitX=0;exitY=0.5;exitDx=0;exitDy=0;entryX=1;entryY=1;entryDx=0;entryDy=0;sketch=1;" edge="1" parent="1" source="CrV6sKeJObAhqucFXJqA-6" target="CrV6sKeJObAhqucFXJqA-4">
          <mxGeometry x="-0.3216" width="50" height="50" relative="1" as="geometry">
            <mxPoint x="-420" y="-290" as="sourcePoint" />
            <mxPoint x="-370" y="-340" as="targetPoint" />
            <Array as="points">
              <mxPoint x="-380" y="-270" />
            </Array>
            <mxPoint as="offset" />
          </mxGeometry>
        </mxCell>
        <mxCell id="CrV6sKeJObAhqucFXJqA-19" value="" style="edgeStyle=elbowEdgeStyle;elbow=vertical;endArrow=classic;html=1;entryX=0.5;entryY=0;entryDx=0;entryDy=0;exitX=0.5;exitY=1;exitDx=0;exitDy=0;sketch=1;" edge="1" parent="1" source="CrV6sKeJObAhqucFXJqA-15" target="CrV6sKeJObAhqucFXJqA-17">
          <mxGeometry width="50" height="50" relative="1" as="geometry">
            <mxPoint x="-390" y="130" as="sourcePoint" />
            <mxPoint x="-340" y="80" as="targetPoint" />
          </mxGeometry>
        </mxCell>
        <mxCell id="CrV6sKeJObAhqucFXJqA-20" value="&lt;font face=&quot;Comic Sans MS&quot;&gt;取关事件&lt;/font&gt;" style="ellipse;shape=doubleEllipse;whiteSpace=wrap;html=1;aspect=fixed;fillColor=none;strokeColor=#00CC00;sketch=1;" vertex="1" parent="1">
          <mxGeometry x="120" y="-560" width="80" height="80" as="geometry" />
        </mxCell>
        <mxCell id="CrV6sKeJObAhqucFXJqA-21" value="&lt;font face=&quot;Comic Sans MS&quot;&gt;取关人&lt;br&gt;是否活跃用户&lt;br&gt;【active_user_$userId】&lt;br&gt;&lt;/font&gt;" style="rhombus;whiteSpace=wrap;html=1;strokeWidth=2;fillWeight=-1;hachureGap=8;fillStyle=cross-hatch;sketch=1;fillColor=none;strokeColor=#FFB570;" vertex="1" parent="1">
          <mxGeometry x="100" y="-430" width="120" height="60" as="geometry" />
        </mxCell>
        <mxCell id="CrV6sKeJObAhqucFXJqA-22" value="" style="edgeStyle=segmentEdgeStyle;endArrow=classic;html=1;entryX=0.5;entryY=0;entryDx=0;entryDy=0;exitX=0.5;exitY=1;exitDx=0;exitDy=0;sketch=1;" edge="1" parent="1" source="CrV6sKeJObAhqucFXJqA-20" target="CrV6sKeJObAhqucFXJqA-21">
          <mxGeometry width="50" height="50" relative="1" as="geometry">
            <mxPoint x="270" y="-480" as="sourcePoint" />
            <mxPoint x="320" y="-530" as="targetPoint" />
            <Array as="points">
              <mxPoint x="160" y="-460" />
              <mxPoint x="160" y="-460" />
            </Array>
          </mxGeometry>
        </mxCell>
        <mxCell id="CrV6sKeJObAhqucFXJqA-23" value="&lt;font face=&quot;Comic Sans MS&quot;&gt;结束&lt;/font&gt;" style="ellipse;whiteSpace=wrap;html=1;strokeWidth=2;fillWeight=2;hachureGap=8;fillStyle=dots;sketch=1;fillColor=none;strokeColor=#FF0000;" vertex="1" parent="1">
          <mxGeometry x="-100" y="-430" width="120" height="60" as="geometry" />
        </mxCell>
        <mxCell id="CrV6sKeJObAhqucFXJqA-24" value="否" style="edgeStyle=segmentEdgeStyle;endArrow=classic;html=1;entryX=1;entryY=0.5;entryDx=0;entryDy=0;exitX=0;exitY=0.5;exitDx=0;exitDy=0;sketch=1;" edge="1" parent="1" source="CrV6sKeJObAhqucFXJqA-21" target="CrV6sKeJObAhqucFXJqA-23">
          <mxGeometry width="50" height="50" relative="1" as="geometry">
            <mxPoint x="40" y="-320" as="sourcePoint" />
            <mxPoint x="90" y="-370" as="targetPoint" />
          </mxGeometry>
        </mxCell>
        <mxCell id="CrV6sKeJObAhqucFXJqA-25" value="&lt;font face=&quot;Comic Sans MS&quot;&gt;feed流&lt;br&gt;是否存在&lt;br&gt;【feed_list_$userId】&lt;br&gt;&lt;/font&gt;" style="rhombus;whiteSpace=wrap;html=1;strokeWidth=2;fillWeight=-1;hachureGap=8;fillStyle=cross-hatch;sketch=1;fillColor=none;strokeColor=#FFB570;" vertex="1" parent="1">
          <mxGeometry x="100" y="-300" width="120" height="60" as="geometry" />
        </mxCell>
        <mxCell id="CrV6sKeJObAhqucFXJqA-26" value="是" style="edgeStyle=elbowEdgeStyle;elbow=vertical;endArrow=classic;html=1;entryX=0.5;entryY=0;entryDx=0;entryDy=0;exitX=0.5;exitY=1;exitDx=0;exitDy=0;sketch=1;" edge="1" parent="1" source="CrV6sKeJObAhqucFXJqA-21" target="CrV6sKeJObAhqucFXJqA-25">
          <mxGeometry width="50" height="50" relative="1" as="geometry">
            <mxPoint x="60" y="-320" as="sourcePoint" />
            <mxPoint x="110" y="-370" as="targetPoint" />
          </mxGeometry>
        </mxCell>
        <mxCell id="CrV6sKeJObAhqucFXJqA-27" value="否" style="edgeStyle=elbowEdgeStyle;elbow=vertical;endArrow=classic;html=1;exitX=0;exitY=0.5;exitDx=0;exitDy=0;entryX=1;entryY=1;entryDx=0;entryDy=0;sketch=1;" edge="1" parent="1" source="CrV6sKeJObAhqucFXJqA-25" target="CrV6sKeJObAhqucFXJqA-23">
          <mxGeometry x="-0.3216" width="50" height="50" relative="1" as="geometry">
            <mxPoint x="10" y="-290" as="sourcePoint" />
            <mxPoint x="60" y="-340" as="targetPoint" />
            <Array as="points">
              <mxPoint x="50" y="-270" />
            </Array>
            <mxPoint as="offset" />
          </mxGeometry>
        </mxCell>
        <mxCell id="CrV6sKeJObAhqucFXJqA-28" value="&lt;font face=&quot;Comic Sans MS&quot;&gt;获取取关人&lt;br&gt;feed流所有动态&lt;/font&gt;" style="rounded=1;whiteSpace=wrap;html=1;strokeWidth=2;fillWeight=4;hachureGap=8;hachureAngle=45;sketch=1;fillColor=none;" vertex="1" parent="1">
          <mxGeometry x="100" y="-180" width="120" height="60" as="geometry" />
        </mxCell>
        <mxCell id="CrV6sKeJObAhqucFXJqA-29" value="" style="edgeStyle=elbowEdgeStyle;elbow=vertical;endArrow=classic;html=1;entryX=0.5;entryY=0;entryDx=0;entryDy=0;exitX=0.5;exitY=1;exitDx=0;exitDy=0;sketch=1;" edge="1" parent="1" source="CrV6sKeJObAhqucFXJqA-25" target="CrV6sKeJObAhqucFXJqA-28">
          <mxGeometry width="50" height="50" relative="1" as="geometry">
            <mxPoint x="60" y="-190" as="sourcePoint" />
            <mxPoint x="110" y="-240" as="targetPoint" />
          </mxGeometry>
        </mxCell>
        <mxCell id="CrV6sKeJObAhqucFXJqA-30" value="&lt;font face=&quot;Comic Sans MS&quot;&gt;是否包含&lt;br&gt;被取关人的动态&lt;br&gt;&lt;/font&gt;" style="rhombus;whiteSpace=wrap;html=1;strokeWidth=2;fillWeight=-1;hachureGap=8;fillStyle=cross-hatch;sketch=1;fillColor=none;strokeColor=#FFB570;" vertex="1" parent="1">
          <mxGeometry x="100" y="-60" width="120" height="60" as="geometry" />
        </mxCell>
        <mxCell id="CrV6sKeJObAhqucFXJqA-31" value="" style="edgeStyle=elbowEdgeStyle;elbow=vertical;endArrow=classic;html=1;entryX=0.5;entryY=0;entryDx=0;entryDy=0;exitX=0.5;exitY=1;exitDx=0;exitDy=0;sketch=1;" edge="1" parent="1" source="CrV6sKeJObAhqucFXJqA-28" target="CrV6sKeJObAhqucFXJqA-30">
          <mxGeometry width="50" height="50" relative="1" as="geometry">
            <mxPoint x="-20" y="-70" as="sourcePoint" />
            <mxPoint x="30" y="-120" as="targetPoint" />
          </mxGeometry>
        </mxCell>
        <mxCell id="CrV6sKeJObAhqucFXJqA-32" value="否" style="edgeStyle=elbowEdgeStyle;elbow=vertical;endArrow=classic;html=1;exitX=0;exitY=0.5;exitDx=0;exitDy=0;entryX=0.5;entryY=1;entryDx=0;entryDy=0;sketch=1;" edge="1" parent="1" source="CrV6sKeJObAhqucFXJqA-30" target="CrV6sKeJObAhqucFXJqA-23">
          <mxGeometry x="-0.6667" width="50" height="50" relative="1" as="geometry">
            <mxPoint x="-20" y="-50" as="sourcePoint" />
            <mxPoint x="30" y="-100" as="targetPoint" />
            <Array as="points">
              <mxPoint x="20" y="-30" />
              <mxPoint x="30" y="-190" />
            </Array>
            <mxPoint as="offset" />
          </mxGeometry>
        </mxCell>
        <mxCell id="CrV6sKeJObAhqucFXJqA-33" value="&lt;font face=&quot;Comic Sans MS&quot;&gt;从feed流删除&lt;br&gt;被取关人动态&lt;br&gt;【feed_list_$userId】&lt;/font&gt;" style="rounded=1;whiteSpace=wrap;html=1;strokeWidth=2;fillWeight=4;hachureGap=8;hachureAngle=45;sketch=1;fillColor=none;strokeColor=#0000FF;" vertex="1" parent="1">
          <mxGeometry x="95" y="50" width="120" height="60" as="geometry" />
        </mxCell>
        <mxCell id="CrV6sKeJObAhqucFXJqA-34" value="&lt;font face=&quot;Comic Sans MS&quot;&gt;被取关人粉丝列表&lt;br&gt;删除用户&lt;br&gt;【active_fans_lisy_$followUserId】&lt;/font&gt;" style="rounded=1;whiteSpace=wrap;html=1;strokeWidth=2;fillWeight=4;hachureGap=8;hachureAngle=45;sketch=1;fillColor=none;strokeColor=#00CC00;" vertex="1" parent="1">
          <mxGeometry x="50" y="170" width="210" height="60" as="geometry" />
        </mxCell>
        <mxCell id="CrV6sKeJObAhqucFXJqA-35" value="" style="edgeStyle=elbowEdgeStyle;elbow=vertical;endArrow=classic;html=1;entryX=0.5;entryY=0;entryDx=0;entryDy=0;exitX=0.5;exitY=1;exitDx=0;exitDy=0;sketch=1;" edge="1" parent="1" source="CrV6sKeJObAhqucFXJqA-33" target="CrV6sKeJObAhqucFXJqA-34">
          <mxGeometry width="50" height="50" relative="1" as="geometry">
            <mxPoint x="35" y="130" as="sourcePoint" />
            <mxPoint x="85" y="80" as="targetPoint" />
          </mxGeometry>
        </mxCell>
        <mxCell id="CrV6sKeJObAhqucFXJqA-36" value="" style="edgeStyle=elbowEdgeStyle;elbow=vertical;endArrow=classic;html=1;entryX=0.5;entryY=0;entryDx=0;entryDy=0;exitX=0.5;exitY=1;exitDx=0;exitDy=0;sketch=1;" edge="1" parent="1">
          <mxGeometry width="50" height="50" relative="1" as="geometry">
            <mxPoint x="159.5" as="sourcePoint" />
            <mxPoint x="159.5" y="50" as="targetPoint" />
          </mxGeometry>
        </mxCell>
      </root>
    </mxGraphModel>
  </diagram>
</mxfile>
